# xmcd
#
# Track frame offsets: 
#        182
#        10572
#        21300
#        38362
#        49937
#        67215
#        77730
#        92642
#        112097
#        125570
#        139057
#        155977
#        177080
#        188860
#        198205
#        215042
#        229610
#
# Disc length: 3249 seconds
#
# Revision: 4
# Processed by: cddbd v1.5.1PL0 Copyright (c) Steve Scherf et al.
# Submitted via: ExactAudioCopy v0.90b4
#
DISCID=ec0caf11
DTITLE=Various Artist - Blues and Soul [CD2]
DYEAR=1994
DGENRE=Blues and Soul
TTITLE0=Sam and Dave - Soul Sister Brown Sugar
TTITLE1=James Brown - Papa's Got A Brand New Bag (Live)
TTITLE2=Percy Sledge - Warm And Tender Love
TTITLE3=The Tams - Hey Girl Don't Bother Me
TTITLE4=Brook Benton - Rainy Night In Georgia
TTITLE5=Martha Reeves - In The Midnight Hour
TTITLE6=Harold Melvyn - Satisfaction Guaranteed
TTITLE7=The Three Degrees - Dirty Ol' Man
TTITLE8=Ben E King - Spanish Harlem
TTITLE9=George McCrae - I Can't Leave You Alone
TTITLE10=The Originals - Please Mr Postman
TTITLE11=Fifth Dimension - Love Hangover
TTITLE12=Cupid's Inspiration - Yesterday Has Gone
TTITLE13=The Shirelles - Dedicated To The One I Love
TTITLE14=Etta James - Blowin' In The Wind
TTITLE15=B J Thomas /Hooked On A Feeling
TTITLE16=Brooklyn Bridge - The Worst That Could Happen To Me
EXTD=Fat CD 409/1\n\n4 CD Set YEAR: 1993
EXTT0=
EXTT1=
EXTT2=
EXTT3=
EXTT4=
EXTT5=
EXTT6=
EXTT7=
EXTT8=
EXTT9=
EXTT10=
EXTT11=
EXTT12=
EXTT13=
EXTT14=
EXTT15=
EXTT16=
PLAYORDER=
